# xmcd CD database file
# Generated: Mon Jul 7 23:50:46 2003 by KSCD
# 
# Track frame offsets:
#       150
#       6822
#       24042
#       32480
#       51532
#       86085
#       116827
#       129042
#       154245
#       165800
#
# Disc length: 2469 seconds
#
# Revision: 1
# Processed by: cddbd v1.4PL0 Copyright (c) Steve Scherf et al.
# Submitted via: Kscd 1.3.3
#
DISCID=6a09a30a
DTITLE=Bruce Cockburn - Night vision
DYEAR=1900
DGENRE=
TTITLE0=Foxglove
TTITLE1=You don't have to play the horses
TTITLE2=The blues got the world . . .
TTITLE3=Mama just wants to barrelhouse all night long
TTITLE4=Islands in a black sky
TTITLE5=Clocks don't bring tomorrow - knives don't bring good news
TTITLE6=When the sun goes nova
TTITLE7=De'ja' vu
TTITLE8=Lightstorm
TTITLE9=God bless the children
EXTD=
EXTT0=
EXTT1=
EXTT2=
EXTT3=
EXTT4=
EXTT5=
EXTT6=
EXTT7=
EXTT8=
EXTT9=
PLAYORDER=
